<svg width="851" height="1000" xmlns="http://www.w3.org/2000/svg">
 <metadata>Svg Vector Icons : http://www.onlinewebfonts.com/icon</metadata>

 <g>
  <title>background</title>
  <rect fill="none" id="canvas_background" height="1002" width="853" y="-1" x="-1"/>
 </g>
 <g>
  <title>Layer 1</title>
  <g stroke="null" id="svg_1">
   <g stroke="null" id="svg_2" transform="translate(0,512) scale(0.10000000149011612,-0.10000000149011612) ">
    <path stroke="null" fill="#ffffff" id="svg_3" d="m5455.298563,5041.600067c-176.3,-49.8 -272.1,-128.4 -343,-287.4c-69,-155.2 -82.4,-316.2 -40.2,-515.4c30.7,-151.4 30.7,-168.6 0,-295.1c-40.2,-157.1 -93.9,-229.9 -222.3,-293.2c-80.5,-42.2 -118.8,-47.9 -300.8,-47.9c-249.1,0 -360.2,-28.7 -503.9,-130.3c-59.4,-42.2 -172.4,-95.8 -264.4,-126.5c-252.9,-80.5 -456,-185.9 -634.2,-325.7c-90.1,-70.9 -222.3,-164.8 -297,-206.9c-231.8,-134.1 -279.7,-172.5 -327.7,-268.3c-122.6,-243.3 -193.5,-712.8 -210.8,-1394.9c-9.6,-366 -17.2,-444.5 -47.9,-521.2c-55.6,-137.9 -67.1,-302.7 -28.7,-408.1c19.2,-47.9 49.8,-95.8 69,-105.4c47.9,-24.9 335.3,-24.9 425.4,0c84.3,24.9 111.1,65.1 111.1,166.7c0,42.1 13.4,92 28.7,113c36.4,49.8 34.5,97.7 -7.7,193.5c-23,47.9 -61.3,92 -95.8,111.1c-47.9,23 -59.4,42.2 -59.4,90.1c0,122.6 99.6,538.4 180.1,758.8c103.5,275.9 139.9,412 157.1,580.6l13.4,128.4l78.6,9.6c176.3,24.9 586.3,195.4 768.4,318.1c70.9,49.8 136,51.7 159,7.7c9.6,-19.2 23,-103.5 30.7,-185.9c7.7,-111.1 44.1,-249.1 128.4,-505.8c139.9,-429.2 170.5,-559.5 170.5,-766.4c0,-195.4 -42.2,-327.6 -182,-578.7c-159.1,-281.7 -185.9,-364.1 -197.4,-588.3c-5.8,-116.9 0,-245.2 13.4,-314.2l23,-116.9l-90.1,-137.9c-164.8,-243.3 -320,-578.7 -436.9,-935.1c-182,-553.7 -247.2,-628.4 -595.9,-676.3c-456,-65.2 -526.9,-97.7 -1249.3,-569.1c-224.2,-145.6 -444.5,-279.7 -488.6,-295c-63.2,-23 -141.8,-28.8 -331.5,-24.9c-408.1,9.6 -484.8,3.8 -551.8,-34.5c-95.8,-57.5 -109.2,-101.5 -105.4,-381.3c1.9,-247.2 0,-252.9 -63.2,-392.8c-63.2,-138 -65.1,-147.6 -65.1,-390.9c0,-258.7 21.1,-358.3 86.2,-392.8c59.4,-30.7 118.8,21.1 170.5,153.3c46,111.1 260.6,425.4 492.4,716.6c160.9,205 329.6,277.8 1099.8,480.9c390.9,103.5 885.2,262.5 1191.8,385.1c118.8,46 285.5,101.6 369.8,122.6c218.4,55.6 304.7,103.5 417.7,233.8c55.6,61.3 205,199.3 333.4,304.7c410,337.2 557.6,523.1 839.2,1051.9c80.5,153.3 153.3,283.6 161,291.2c5.7,7.7 86.2,-11.5 176.3,-42.1c205,-70.9 452.2,-122.6 764.5,-160.9c720.4,-88.1 919.7,-116.9 919.7,-130.3c0,-9.6 -24.9,-61.3 -55.6,-116.9c-161,-287.4 -206.9,-592.1 -174.4,-1191.8c17.3,-302.8 17.3,-452.2 0,-588.3c-32.6,-279.7 -101.6,-528.8 -189.7,-689.8c-88.1,-159 -120.7,-291.2 -97.7,-392.8c26.8,-113 78.6,-149.4 312.3,-216.5c118.8,-34.5 321.9,-105.4 450.3,-157.1c281.7,-115 392.8,-128.4 618.9,-84.3c172.4,34.5 252.9,78.6 262.5,139.9c7.7,46 -46,88.1 -206.9,168.6c-293.2,147.5 -544.2,373.6 -611.2,553.8c-99.6,266.3 -78.6,398.5 258.7,1649.7c80.5,295.1 180.1,661 224.2,814.3c61.3,218.4 78.6,310.4 78.6,431.1c0,237.6 -34.5,281.7 -381.3,469.4c-84.3,46 -252.9,141.8 -377.5,214.6c-400.4,235.7 -735.7,377.4 -1285.6,542.2c-124.6,36.4 -239.5,67.1 -256.8,67.1c-36.4,0 -30.7,30.7 47.9,316.2c76.6,283.6 130.3,515.4 174.4,768.4c36.4,216.5 97.7,534.6 109.2,578.7c5.8,17.2 46,-7.7 113.1,-67.1c105.4,-93.9 551.8,-344.9 712.8,-398.5c78.6,-26.8 92,-26.8 155.2,3.8c38.3,19.2 132.2,93.9 210.8,166.7c226.1,216.5 371.7,461.8 530.8,904.4c78.6,220.4 101.5,264.4 182,348.7c70.9,72.8 101.5,126.5 126.4,206.9c30.7,105.4 30.7,113 -3.8,176.3c-38.3,72.8 -138,157.1 -243.4,206.9c-61.3,28.7 -76.6,30.7 -118.8,7.7c-24.9,-13.4 -51.7,-40.2 -59.4,-61.3c-5.8,-19.2 -21.1,-34.5 -36.4,-34.5c-13.4,0 -44.1,-15.3 -67.1,-34.5c-55.6,-44.1 -72.8,-224.2 -30.6,-354.5c26.8,-92 26.8,-93.9 -36.4,-214.6c-84.3,-161 -153.3,-245.3 -327.7,-392.8c-80.5,-69 -174.4,-161 -207,-203.1l-61.3,-78.6l-99.6,120.7c-53.7,67.1 -162.9,174.4 -241.4,237.6c-124.6,103.5 -141.8,124.5 -151.3,197.4c-34.5,237.6 -124.6,394.7 -287.4,500.1c-55.6,36.4 -136.1,103.5 -182,151.4c-67.1,67.1 -82.4,95.8 -76.6,139.9c5.7,59.4 -7.7,57.5 203.1,42.1c88.1,-5.7 118.8,17.3 118.8,93.9c0,23 13.4,55.6 30.7,70.9c15.4,17.2 23,38.3 17.2,49.8c-5.7,9.6 -5.7,30.7 3.8,42.2c7.7,13.4 11.5,47.9 7.7,76.6c-3.8,47.9 1.9,53.6 53.7,53.6c30.6,0 63.2,7.7 69,19.2c5.7,9.6 -3.8,65.1 -21.1,122.6c-30.7,99.6 -30.7,111.1 0,210.8c28.7,90.1 30.6,120.7 11.5,216.5c-51.7,247.2 -189.7,427.3 -379.4,494.4c-103.7,36.3 -370,53.6 -454.3,30.6z"/>
    <polyline stroke-linecap="round" id="svg_4" points="-1652.003662109375,-49.09470176696777 -1652.003662109375,-51.09470558166504 -1652.003662109375,-51.09470558166504 -1652.003662109375,-51.09470558166504 -1652.003662109375,-49.09470176696777 -1650.003662109375,-47.09469795227051 -1638.003662109375,-27.094664096832275 -1618.003662109375,4.905389785766602 -1590.003662109375,50.90546989440918 -1558.003662109375,98.90555381774902 -1510.0035400390625,172.90568351745605 -1482.0035400390625,218.90575981140137 -1456.0032958984375,266.90585136413574 -1440.0032958984375,314.905912399292 -1432.0032958984375,360.90600395202637 -1424.0032958984375,406.9060649871826 -1418.0032958984375,444.906156539917 -1410.0032958984375,472.9061870574951 -1406.0032958984375,488.90621757507324 -1402.0032958984375,498.90621757507324 -1400.0032958984375,504.90621757507324 -1400.0032958984375,514.9062786102295 -1398.0032958984375,532.9062786102295 -1398.0032958984375,546.9063396453857 -1394.0032958984375,556.9063396453857 -1392.0032958984375,564.9063396453857 -1390.0032958984375,572.9063396453857 -1388.0032958984375,582.906400680542 -1384.0032958984375,596.906400680542 -1380.0032958984375,612.906400680542 -1378.0032958984375,626.9064617156982 -1376.0032958984375,636.9064617156982 -1374.0032958984375,642.9064617156982 -1372.0032958984375,648.9064617156982 -1370.0032958984375,652.9065227508545 -1370.0032958984375,654.9065227508545 -1370.0032958984375,654.9065227508545 " opacity="0.5" fill-opacity="null" stroke-opacity="null" stroke-width="null" stroke="null" fill="none"/>
    <polyline stroke-linecap="round" id="svg_5" points="-1372.0032958984375,650.9065227508545 -1372.0032958984375,646.9064617156982 -1372.0032958984375,634.9064617156982 -1378.0032958984375,606.906400680542 -1384.0032958984375,582.906400680542 -1394.0032958984375,552.9063396453857 -1404.0032958984375,514.9062786102295 -1412.0032958984375,470.9061870574951 -1422.0032958984375,422.90609550476074 -1434.0032958984375,384.9060344696045 -1442.0032958984375,352.90597343444824 -1450.0032958984375,320.9059429168701 -1452.0032958984375,290.90588188171387 -1454.0032958984375,264.9058208465576 -1456.0032958984375,244.9057903289795 -1456.0032958984375,220.90575981140137 -1456.0032958984375,208.9057445526123 -1456.0032958984375,200.90572929382324 -1456.0032958984375,190.90571403503418 -1458.0032958984375,180.90569877624512 -1462.00341796875,168.905668258667 -1466.00341796875,156.90565299987793 -1472.00341796875,142.9056224822998 -1478.00341796875,128.90560722351074 -1486.0035400390625,112.90557670593262 -1492.0035400390625,100.90555381774902 -1498.0035400390625,88.90553092956543 -1500.0035400390625,82.9055233001709 " opacity="0.5" fill-opacity="null" stroke-opacity="null" stroke-width="null" stroke="null" fill="none"/>
    <polyline stroke-linecap="round" id="svg_6" points="-1504.0035400390625,72.90550804138184 -1504.0035400390625,72.90550804138184 -1506.0035400390625,74.90550804138184 -1506.0035400390625,78.90551567077637 -1506.0035400390625,92.90553855895996 -1500.0035400390625,118.90559196472168 -1490.0035400390625,148.90563774108887 -1480.0035400390625,180.90569877624512 -1472.00341796875,204.90572929382324 -1464.00341796875,232.90577507019043 -1450.0032958984375,278.90585136413574 -1438.0032958984375,316.905912399292 -1422.0032958984375,356.90600395202637 -1408.0032958984375,388.9060344696045 -1398.0032958984375,410.90609550476074 -1392.0032958984375,422.90609550476074 -1392.0032958984375,426.90612602233887 " opacity="0.5" fill-opacity="null" stroke-opacity="null" stroke-width="null" stroke="null" fill="none"/>
   </g>
  </g>
 </g>
</svg>